<svg xmlns="http://www.w3.org/2000/svg" height="800" width="1200" viewBox="-38.78505 -83.11125 336.1371 498.6675"><path d="M13.555 308.58v7.764h-.622c-.236-1.52-.568-2.692-1.069-3.514-.503-.96-1.295-1.58-2.24-2.094-.933-.529-1.979-.86-2.985-.86a4.228 4.228 0 00-2.855 1.12c-.78.747-1.175 1.552-1.175 2.395 0 .755.26 1.356.744 1.948.675.776 2.364 1.999 4.903 3.352 2.164 1.139 3.608 2.013 4.441 2.573.696.615 1.354 1.406 1.764 2.22.399.8.616 1.692.616 2.567 0 1.737-.69 3.217-1.99 4.441-1.33 1.308-3.066 1.953-5.139 1.953-.68 0-1.31-.118-1.885-.2-.346-.034-1.04-.26-2.178-.63-1.082-.332-1.76-.53-2.041-.53-.312 0-.48.069-.692.283-.157.148-.241.494-.324 1.077H.205v-7.874h.623c.248 1.633.676 2.897 1.184 3.68.468.852 1.227 1.5 2.232 2.046 1.017.562 2.081.789 3.293.789 1.412 0 2.498-.329 3.334-1.168.81-.69 1.193-1.536 1.193-2.523a3.8 3.8 0 00-.439-1.725c-.329-.56-.808-1.099-1.42-1.616-.445-.328-1.645-1.019-3.566-2.175-1.932-1.057-3.327-1.887-4.159-2.559-.868-.648-1.463-1.32-1.92-2.165a6.112 6.112 0 01-.56-2.607c0-1.585.56-3.05 1.844-4.177 1.233-1.201 2.863-1.792 4.795-1.792 1.176 0 2.45.313 3.8.923.625.26 1.088.374 1.348.374.277 0 .513-.062.729-.258.181-.198.325-.512.417-1.039h.622m8.978 7.487v3.366c1.326-2.245 2.594-3.366 3.982-3.366.574 0 1.081.112 1.56.474.353.468.558.844.558 1.36 0 .408-.164.791-.444 1.055-.289.365-.633.477-1.065.477-.335 0-.804-.166-1.296-.577-.468-.393-.83-.579-1.067-.579-.23 0-.408.118-.681.315-.456.479-.981 1.239-1.547 2.31v7.35c0 .876.135 1.536.319 2 .16.241.424.525.772.705.39.198.941.327 1.639.327v.596h-7.999v-.596c.843 0 1.376-.18 1.755-.362.32-.164.52-.477.645-.858.07-.243.1-.74.1-1.647v-5.913c0-1.799-.03-2.904-.1-3.237-.052-.343-.181-.594-.413-.804-.232-.1-.428-.186-.715-.186-.348 0-.74.086-1.185.254l-.152-.584 4.621-1.88h.713m12.272 0v12.35c0 .978.03 1.583.192 1.88.108.327.334.592.624.723.231.197.746.264 1.423.264v.596h-7.312v-.596c.693 0 1.205-.067 1.424-.264.283-.098.464-.396.605-.657.136-.363.255-.968.255-1.946v-5.913c0-1.713-.1-2.819-.185-3.301-.07-.347-.211-.61-.392-.74-.114-.1-.319-.186-.632-.186-.319 0-.676.086-1.139.254l-.232-.584 4.624-1.88zm-1.416-8.05c.458 0 .886.18 1.188.49.342.337.5.712.5 1.256 0 .445-.158.81-.5 1.136-.302.352-.73.493-1.188.493-.498 0-.882-.141-1.234-.493-.36-.327-.496-.69-.496-1.136 0-.544.136-.919.496-1.256.304-.31.736-.49 1.234-.49m32.901 17.608l.551.18-1.913 6.075H47.265v-.596h.868c.963 0 1.666-.327 2.086-.921.25-.444.313-1.235.313-2.524v-14.73c0-1.365-.13-2.256-.481-2.67-.427-.478-1.079-.676-1.918-.676h-.868v-.686h10.282v.686c-1.172 0-2.014.052-2.523.266-.477.231-.792.543-.981.902-.21.32-.262 1.162-.262 2.51v14.398c0 .907.052 1.616.262 1.95.156.275.353.397.606.509.356.095 1.195.147 2.66.147h1.64c1.771 0 2.94-.082 3.672-.33a4.753 4.753 0 001.86-1.405c.655-.71 1.22-1.7 1.81-3.085m11.499 5.956c.327.405.711.615 1.285.615 1.104 0 2.344-.827 3.581-2.572v-.914c-.648.685-1.11 1.078-1.33 1.209-.154.145-.255.167-.5.167-.118 0-.24-.022-.398-.22-.152-.078-.25-.345-.332-.638 0-.35-.03-1.239-.03-2.692v-5.27c0-1.487-.069-2.477-.285-2.903-.348-.714-.82-1.306-1.434-1.623-.924-.507-1.986-.673-3.394-.673-1.79 0-3.158.397-4.168 1.224-.94.822-1.497 1.665-1.497 2.633 0 .55.155.93.4 1.175.26.333.637.497 1.016.497.456 0 .824-.145 1.061-.412.268-.259.394-.69.394-1.19l-.054-1.038c0-.493.236-.843.658-1.255.4-.362.976-.574 1.672-.574.905 0 1.633.258 2.097.874.441.56.74 1.6.74 3.098v.645c-2.607.927-4.51 1.804-5.643 2.53-1.106.594-1.94 1.32-2.358 2.042-.363.581-.51 1.24-.51 1.936 0 1.219.323 2.141 1.018 2.852.69.759 1.552 1.108 2.593 1.108.695 0 1.367-.099 1.981-.41.384-.186 1.363-.86 2.92-2.08 0 .902.15 1.518.516 1.86zm-3.903-1.283c-.56 0-1.124-.234-1.659-.79-.433-.587-.7-1.195-.7-2 0-.61.157-1.192.577-1.704.33-.56 1.026-1.053 1.914-1.53.474-.317 1.536-.726 3.253-1.422v5.74c-1.37 1.16-2.47 1.706-3.385 1.706m14.512-11.031c1.812-2.14 3.52-3.2 5.116-3.2.876 0 1.545.166 2.18.612.548.378 1.07 1.137 1.402 2.078.28.628.36 1.716.36 3.071v6.59c0 .977.094 1.646.247 1.945.139.261.297.526.55.657.298.197.773.264 1.486.264v.596h-7.512v-.596h.296c.675 0 1.224-.13 1.539-.343.25-.183.446-.548.526-1.022.08-.13.08-.595.08-1.502v-6.337c0-1.375-.16-2.416-.508-3.056-.36-.63-1.009-.91-1.858-.91-1.242 0-2.6.675-3.904 2.11v8.193c0 1.038.067 1.698.19 1.946.14.261.36.56.627.657.272.197.82.264 1.636.264v.596h-7.536v-.596h.347c.724 0 1.253-.197 1.534-.59.262-.396.378-1.186.378-2.277v-5.746c0-1.848-.02-2.986-.116-3.35-.079-.397-.21-.729-.364-.858a1.433 1.433 0 00-.708-.186c-.338 0-.69.086-1.07.254l-.257-.584 4.587-1.88h.752v3.2m17.202-11.25v15.316l3.926-3.648c.83-.729 1.341-1.154 1.456-1.322.081-.166.13-.25.13-.416 0-.196-.13-.378-.329-.562-.15-.184-.459-.258-.876-.258v-.663h6.684v.545c-.91 0-1.683.147-2.296.444-.619.248-1.299.69-1.995 1.351l-3.964 3.7 3.964 5.004c1.09 1.37 1.752 2.244 2.16 2.607.56.51 1.006.842 1.446.972.282.13.737.197 1.5.197v.596h-7.499v-.596c.417 0 .681-.067.85-.197a.593.593 0 00.225-.494c0-.23-.224-.728-.658-1.269l-4.724-5.99v5.083c0 1.038.09 1.669.232 1.946.148.33.328.578.576.657.296.135.847.264 1.734.264v.596H100.3v-.596c.78 0 1.425-.13 1.765-.297a.948.948 0 00.524-.594c.156-.307.26-.938.26-1.88v-13.996c0-1.72-.08-2.904-.104-3.266-.08-.398-.189-.664-.38-.812-.217-.115-.43-.196-.704-.196-.24 0-.598.081-1.057.246l-.304-.612 4.561-1.86h.74m21.789 23.564c.385.405.76.615 1.3.615 1.209 0 2.352-.827 3.602-2.572v-.914c-.658.685-1.081 1.078-1.348 1.209-.144.145-.283.167-.476.167-.12 0-.341-.022-.428-.22-.141-.078-.225-.345-.31-.638 0-.35-.044-1.239-.044-2.692v-5.27c0-1.487-.12-2.477-.302-2.903-.31-.714-.774-1.306-1.473-1.623-.85-.507-1.97-.673-3.359-.673-1.788 0-3.138.397-4.177 1.224-.941.822-1.453 1.665-1.453 2.633 0 .55.133.93.44 1.175.238.333.552.497 1.013.497.427 0 .745-.145 1-.412.255-.259.384-.69.384-1.19l-.007-1.038c0-.493.224-.843.62-1.255.425-.362.957-.574 1.66-.574.947 0 1.661.258 2.153.874.48.56.72 1.6.72 3.098v.645c-2.622.927-4.533 1.804-5.673 2.53-1.092.594-1.912 1.32-2.327 2.042-.353.581-.514 1.24-.514 1.936 0 1.219.334 2.141.972 2.852.729.759 1.617 1.108 2.673 1.108.664 0 1.293-.099 1.865-.41.448-.186 1.406-.86 3.004-2.08.03.902.188 1.518.486 1.86zm-3.851-1.283c-.642 0-1.235-.234-1.678-.79-.448-.587-.717-1.195-.717-2 0-.61.203-1.192.553-1.704.394-.56 1.03-1.053 1.96-1.53.48-.317 1.547-.726 3.248-1.422v5.74c-1.38 1.16-2.486 1.706-3.366 1.706m36.788-21.221l.192 5.322h-.592a11.163 11.163 0 00-.508-1.978c-.357-.662-.848-1.17-1.396-1.49-.59-.266-1.301-.442-2.279-.442h-3.198v17.448c0 1.387.212 2.315.445 2.623.493.46 1.163.724 2.036.724h.803v.596h-9.723v-.596h.759c.993 0 1.704-.297 2.08-.89.224-.33.365-1.166.365-2.457v-17.448h-2.725c-1.038 0-1.798.083-2.244.248-.596.194-1.115.643-1.518 1.27-.393.542-.64 1.354-.674 2.392h-.647l.195-5.322h18.629m12.971 13.212c0-1.914-.6-3.433-1.707-4.538-1.085-1.146-2.503-1.684-4.253-1.684-2.044 0-3.711.673-5.074 2.197-1.348 1.4-2.034 3.48-2.034 6.107 0 2.442.64 4.375 1.98 5.815 1.33 1.43 2.928 2.142 4.765 2.142 1.687 0 3.119-.612 4.239-1.883 1.156-1.217 1.8-2.706 2.084-4.308l-.527-.3c-.5 1.392-1.161 2.35-1.857 2.873-.772.56-1.614.811-2.622.811-1.566 0-2.778-.642-3.917-1.897-1.124-1.308-1.677-3.052-1.677-5.335zm-9.344-3.98c.724-.704 1.577-1.108 2.522-1.108.566 0 1.19.252 1.743.58.524.332.993.811 1.215 1.422.233.397.329 1.105.37 2.062h-7.106c.106-1.272.553-2.24 1.256-2.956m16.661-10.292v20.4c0 .978.11 1.583.208 1.88.15.327.379.592.66.723.317.135.856.264 1.653.264v.596h-7.588v-.596c.716 0 1.195-.067 1.455-.264.301-.098.487-.396.641-.657.142-.363.192-.968.192-1.946v-13.9c0-1.72-.05-2.874-.132-3.266-.032-.398-.148-.664-.345-.812a1.255 1.255 0 00-.69-.196c-.258 0-.633.114-1.062.246l-.261-.612 4.489-1.86h.78m17.473 14.272c0-1.914-.581-3.433-1.67-4.538-1.128-1.146-2.527-1.684-4.255-1.684-2.061 0-3.785.673-5.093 2.197-1.352 1.4-2.042 3.48-2.042 6.107 0 2.442.69 4.375 1.968 5.815 1.355 1.43 2.907 2.142 4.79 2.142 1.644 0 3.1-.612 4.237-1.883a7.9 7.9 0 002.065-4.308l-.525-.3c-.5 1.392-1.108 2.35-1.843 2.873-.781.56-1.66.811-2.665.811-1.505 0-2.85-.642-3.895-1.897-1.113-1.308-1.68-3.052-1.68-5.335zm-9.308-3.98c.728-.704 1.583-1.108 2.472-1.108.583 0 1.222.252 1.76.58.52.332.972.811 1.208 1.422.235.397.356 1.105.41 2.062h-7.15c.122-1.272.567-2.24 1.3-2.956m24.48 7.81c-.426 2.049-1.24 3.505-2.446 4.64-1.204 1.042-2.551 1.57-4.015 1.57-1.724 0-3.276-.748-4.57-2.196-1.351-1.469-1.995-3.452-1.995-5.929 0-2.46.758-4.425 2.162-5.927 1.452-1.517 3.188-2.21 5.222-2.21 1.498 0 2.8.33 3.745 1.134.941.83 1.437 1.603 1.437 2.484 0 .456-.076.808-.396 1.051-.284.284-.67.363-1.198.363-.652 0-1.094-.174-1.448-.606-.214-.269-.322-.714-.394-1.368-.069-.662-.312-1.124-.674-1.476-.371-.358-.944-.522-1.654-.522-1.153 0-1.961.378-2.65 1.236-.975 1.07-1.42 2.562-1.42 4.308 0 1.901.445 3.466 1.42 4.953.813 1.333 2.076 2.097 3.61 2.097 1.056 0 2.116-.326 2.955-1.057.633-.496 1.17-1.435 1.83-2.827l.48.282m6.062-9.11c-1.179.692-2.06 1.683-2.777 3.074-.702 1.4-1.063 2.87-1.063 4.252 0 1.938.581 3.654 1.732 5.186 1.395 1.898 3.23 2.807 5.488 2.807 1.476 0 2.74-.342 3.912-1.044 1.185-.724 2.06-1.813 2.744-3.198.639-1.405.993-2.842.993-4.194 0-2.012-.581-3.732-1.808-5.219-1.417-1.816-3.28-2.606-5.621-2.606a7.116 7.116 0 00-3.6.942zm6.12 1.683c1.172 1.532 1.784 3.712 1.784 6.485 0 2.22-.381 3.702-1.081 4.611-.703.905-1.576 1.316-2.703 1.316-1.432 0-2.565-.741-3.467-2.394-.881-1.602-1.366-3.533-1.366-5.758 0-1.47.202-2.577.58-3.503.378-.857.818-1.448 1.397-1.8.663-.31 1.239-.522 1.837-.522 1.266 0 2.202.522 3.019 1.565m11.669.629c1.12-1.124 1.784-1.752 1.994-1.936.465-.376 1.044-.78 1.62-.988.63-.28 1.157-.33 1.736-.33.92 0 1.768.264 2.461.778.656.624 1.136 1.42 1.365 2.476 1.176-1.32 2.131-2.252 2.922-2.642a5.006 5.006 0 012.457-.612c.848 0 1.59.166 2.153.612.664.378 1.2 1.137 1.54 2.013.252.641.375 1.683.375 3.088v6.637c0 .978.079 1.647.176 1.946.107.261.317.497.67.657.227.135.771.264 1.445.264v.596h-7.59v-.596h.294c.646 0 1.148-.18 1.596-.395a1.76 1.76 0 00.514-.825c.082-.243.082-.74.082-1.647v-6.637c0-1.253-.156-2.116-.482-2.655-.388-.717-1.081-1.012-2.052-1.012-.604 0-1.178.084-1.805.418-.584.258-1.293.802-2.192 1.61v.234l.076.712v7.33c0 1.054 0 1.698.17 1.946.078.261.313.497.653.657.354.135.882.264 1.638.264v.596h-7.793v-.596c.856 0 1.452-.13 1.777-.327.323-.18.518-.512.687-.871.016-.234.059-.762.059-1.669v-6.637c0-1.253-.174-2.116-.555-2.655-.475-.717-1.179-1.012-2.077-1.012-.578 0-1.191.151-1.8.448-.894.463-1.551 1.04-2.114 1.58v8.276c0 1.038.118 1.669.2 1.946.168.261.363.56.626.657.294.197.822.264 1.681.264v.596h-7.51v-.596c.667 0 1.15-.067 1.391-.264.282-.098.474-.396.59-.722.185-.298.233-.903.233-1.88v-5.914c0-1.713-.009-2.819-.172-3.237-.061-.41-.161-.675-.33-.804a1.24 1.24 0 00-.67-.186c-.299 0-.699.086-1.14.254l-.215-.584 4.626-1.88h.69v3.254" fill="#2056ae"/><path d="M137.523 225.991c0 9.857-7.956 17.813-17.763 17.813-9.74 0-17.695-7.956-17.695-17.813 0-9.74 7.955-17.68 17.695-17.68 9.807 0 17.763 7.94 17.763 17.68" fill="#a7aedf"/><path d="M177.587 225.991c0 9.857-7.92 17.813-17.808 17.813-9.733 0-17.696-7.956-17.696-17.813 0-9.74 7.963-17.68 17.696-17.68 9.888 0 17.808 7.94 17.808 17.68m40.919 0c0 9.857-7.952 17.813-17.706 17.813-9.826 0-17.756-7.956-17.756-17.813 0-9.74 7.93-17.68 17.756-17.68 9.754 0 17.706 7.94 17.706 17.68m40.061 0c0 9.857-7.95 17.813-17.716 17.813-9.841 0-17.805-7.956-17.805-17.813 0-9.74 7.964-17.68 17.805-17.68 9.767 0 17.716 7.94 17.716 17.68m-40.517 41.007c0 9.753-7.912 17.694-17.68 17.694-9.847 0-17.806-7.94-17.806-17.694 0-9.808 7.959-17.762 17.806-17.762 9.768 0 17.68 7.954 17.68 17.762" fill="#2056ae"/><path d="M178.02 266.998c0 9.753-7.926 17.694-17.712 17.694-9.86 0-17.781-7.94-17.781-17.694 0-9.808 7.921-17.762 17.781-17.762 9.786 0 17.712 7.954 17.712 17.762m-40.497 0c0 9.753-7.956 17.694-17.763 17.694-9.74 0-17.695-7.94-17.695-17.694 0-9.808 7.955-17.762 17.695-17.762 9.807 0 17.763 7.954 17.763 17.762" fill="#a7aedf"/><path d="M84.519 140.751l-.208-.05c-16.324-2.173-32.736-3.938-49.05-6.174 0 0-.296-.025-.678-.092-6.926-1.064-13.79-3.581-18.899-8.515-7.323-7.072-8.601-17.302-6.65-26.857.782-3.837 2.243-7.361 3.791-10.892.795-1.733 1.582-3.525 1.582-3.525a61.556 61.556 0 012.782-5.28c5.018-8.512 11.079-16.404 17.152-24.179 6.578-8.424 13.431-16.635 20.41-24.732 8.182-9.496 16.505-18.885 25.057-28.048 3.088-3.304 8.617-3.113 11.73 0 3.277 3.277 3.083 8.427 0 11.728-.234.25-.466.503-.703.755a979.945 979.945 0 00-30.308 34.272A668.497 668.497 0 0050.229 61.66a484.785 484.785 0 00-4.934 6.248l-.224.296a364.759 364.759 0 00-3.295 4.368c-4.844 6.544-9.584 13.263-13.185 20.467 0 0-6.28 10.353-3.355 17.892 2.284 5.892 12.781 7.325 14.059 7.548 9.23 1.133 18.452 2.304 27.68 3.472 6.897.875 13.818 1.627 20.7 2.62 5.521.796 10.853 2.065 15.91 4.49 5.755 2.762 10.875 7.44 12.796 13.583 2.318 7.41.046 15.924-3.492 22.722l-2.892 5.104c-8.925 14.778-18.862 28.989-29.046 42.92-19.027 26.022-39.439 51.046-61.287 74.752-3.065 3.325-8.63 3.098-11.728 0-3.293-3.292-3.06-8.407 0-11.727A824.229 824.229 0 0043.14 235.59a797.388 797.388 0 007.237-9.091c1.2-1.528 2.396-3.057 3.583-4.593 1.019-1.32-1.236 1.6-.221.284l.8-1.039c.53-.687 1.054-1.375 1.58-2.063 7.628-9.998 15.048-20.16 22.204-30.501 4.801-6.941 9.502-13.955 14.01-21.09a287.226 287.226 0 003.731-6.04l1.452-2.571c.117-.202 3.293-5.858 2.768-9.798-.775-5.821-10.27-7.324-15.765-8.337" fill="#2056ae"/></svg>